<?xml version="1.0" encoding="utf-8"?>
<!-- Generator: Adobe Illustrator 24.0.2, SVG Export Plug-In . SVG Version: 6.00 Build 0)  -->
<svg version="1.1" id="Layer_1" xmlns="http://www.w3.org/2000/svg" xmlns:xlink="http://www.w3.org/1999/xlink" x="0px" y="0px"
	 viewBox="0 0 16 16" style="enable-background:new 0 0 16 16;" xml:space="preserve">
<path d="M12.4,12.3H7.3c-0.4,0-0.7-0.3-0.7-0.7s0.3-0.7,0.7-0.7h5.1c1.2,0,2.1-1,2.1-2.1c0-1.2-1-2.1-2.1-2.1
	c-0.5,0-0.9,0.2-1.3,0.5c-0.2,0.1-0.4,0.2-0.6,0.1C10.2,7.1,10,7,9.9,6.8c-0.5-1-1.5-1.6-2.6-1.6c-1.4,0-2.6,1-2.8,2.4
	c0,0.2-0.2,0.4-0.3,0.5s-0.4,0.1-0.6,0C3.4,8,3.2,8,3.1,8C2.3,8,1.6,8.6,1.6,9.4c0,0.8,0.6,1.4,1.4,1.4c0.4,0,0.7,0.3,0.7,0.7
	s-0.3,0.7-0.7,0.7c-1.6,0-2.9-1.3-2.9-2.9s1.3-2.9,2.9-2.9c0.1,0,0.2,0,0.2,0C3.5,5.9,4,5.2,4.6,4.7c0.8-0.7,1.8-1,2.8-1
	c1.4,0,2.7,0.7,3.5,1.8c0.5-0.2,1-0.3,1.5-0.3c2,0,3.6,1.6,3.6,3.6S14.3,12.3,12.4,12.3z"/>
</svg>
